<svg xmlns="http://www.w3.org/2000/svg" xmlns:svg="http://www.w3.org/2000/svg" width="200" height="160">
  <g display="inline">
    <title>
      Elephant doodle
    </title>
    <script type='text/javascript'>
      <![CDATA[
      document.documentElement.addEventListener('load', () => {
        const eyeEl = document.documentElement.querySelector('#eye');
        setInterval(() => {
          eyeEl.style.display = 'none';
          setTimeout(() => eyeEl.style.display = 'none', 0);
          setTimeout(() => eyeEl.style.display = 'block', 150);
        }, 10000);
      });
      ]]>
    </script>
    <path d="m28.1 150.2c-0.2-2.8-23.7-71.4 5.9-111.8 29.7-40.3 106.5-25.4 122.4-15.2 15.9 10.2 29.2 46.7 5.5 67.2 -23.7 20.4-88.5-0.5-109.2 12.3 -20.6 12.8-11.6 43.7-15.7 48.2 -4 4.5-8.8 2.1-9-0.7zM66.1 99.7 66.1 99.7 66.1 99.7 66.1 99.7 66.1 99.7 66.1 99.7 66.1 99.7 66.1 99.7 66.1 99.7 66.1 99.7 66.1 99.7 66.1 99.7 66.1 99.7 66.1 99.7" stroke-linecap="round" stroke-linejoin="bevel" stroke-dasharray="null" stroke-width="4" stroke="#000000" fill="#ffffff"/>
    <path stroke="#000000" d="m66.1 99.7c0 0-7 18.5-7.3 27.8 -0.3 9.3 2.2 23 1.2 24 -1 0.9-9.3 0.2-9.3 0.2" stroke-linecap="round" stroke-linejoin="bevel" stroke-dasharray="null" stroke-width="4" fill="none"/>
    <path stroke="#000000" d="m84 98.9c0 0-7.6 18.5-8 27.8 -0.4 9.3 2.4 23 1.3 24 -1.1 0.9-10.1 0.2-10.1 0.2" stroke-linecap="round" stroke-linejoin="bevel" stroke-dasharray="null" stroke-width="4" fill="none"/>
    <path stroke="#000000" d="m148.8 97.7c0 0-6.8 19.1-7.1 28.6 -0.3 9.5 2.1 23.8 1.1 24.7 -1 1-9 0.2-9 0.2" stroke-linecap="round" stroke-linejoin="bevel" stroke-dasharray="null" stroke-width="4" fill="none"/>
    <path stroke="#000000" d="m132.6 100.1c0 0-7.6 18.5-8 27.8 -0.4 9.3 2.4 23 1.3 24 -1.1 0.9-10.1 0.2-10.1 0.2" stroke-linecap="round" stroke-linejoin="bevel" stroke-dasharray="null" stroke-width="4" fill="none"/>
    <path d="m175.1 62.3c-1.7 0.2 3.1 28.7 2.8 37.3 -0.2 8.5 0.9 19-0.5 29.7" stroke-linecap="round" stroke-linejoin="bevel" stroke-dasharray="null" stroke-width="4" stroke="#000000" fill="none"/>
    <path stroke="#000000" d="m47.3 107c0 0 9-7.7 14.9-11.9 5.9-4.3 10.7-9 10.3-14.2" stroke-linecap="round" stroke-linejoin="bevel" stroke-dasharray="null" stroke-width="4" fill="none"/>
    <path d="m97.4 29.3c5-9.5 18.3-9.3 25.2 1.4 6.9 10.7 8.8 25.2 4.3 36.3 -4.5 11.2-14.5 20.4-26.1 12.6" stroke-linecap="round" stroke-linejoin="bevel" stroke-dasharray="null" stroke-width="4" stroke="#000000" fill="#ffffff"/>
    <path stroke="#000000" d="m47.4 48.3c-0.8 6.3-1.1 16.2 9.3 20.2 10.4 4 19.1 0.3 24.8-8 5.7-8.2 8.4-22.2-9.4-28.8 -17.7-6.5-23.9 10.2-24.8 16.5z" stroke-linecap="round" stroke-linejoin="bevel" stroke-dasharray="null" stroke-width="4" fill="#ffffff"/>
    <path id='eye' stroke="#000000" d="m57.8 48.2c1.6-2.5 8.2-3 10.2-0.1 2.1 2.9-1.5 9.3-6.1 9.2 -4.5-0.1-5.8-6.6-4.1-9.1z" stroke-linecap="round" stroke-linejoin="bevel" stroke-dasharray="null" stroke-width="4" fill="#000000"/>
  </g>
</svg>
